<svg id="svg" version="1.1" width="400" height="116.33085896076352" viewBox="0 0 400 116.33085896076352" xmlns="http://www.w3.org/2000/svg" xmlns:xlink="http://www.w3.org/1999/xlink" ><g id="svgg"><path id="path0" d="M8.750 0.243 C 8.292 0.351,7.804 0.482,7.667 0.535 C 7.529 0.587,7.079 0.750,6.667 0.897 C 5.665 1.253,4.071 2.312,3.059 3.292 C -0.413 6.656,-0.946 11.209,1.487 16.728 C 1.654 17.107,2.187 18.467,2.672 19.750 C 3.157 21.033,3.682 22.383,3.839 22.750 C 3.996 23.117,5.041 25.817,6.161 28.750 C 8.622 35.194,8.416 34.660,8.639 35.167 C 9.058 36.118,10.167 39.019,10.167 39.165 C 10.167 39.252,10.350 39.724,10.574 40.214 C 10.798 40.705,11.141 41.551,11.336 42.094 C 11.722 43.171,11.958 43.757,12.186 44.206 C 12.267 44.365,12.333 44.579,12.333 44.681 C 12.333 44.783,12.446 45.121,12.583 45.433 C 13.213 46.861,13.327 47.149,13.668 48.164 C 13.867 48.758,14.173 49.541,14.348 49.903 C 14.523 50.266,14.667 50.631,14.667 50.714 C 14.667 50.798,14.787 51.140,14.934 51.475 C 15.332 52.384,15.432 52.636,15.928 54.000 C 16.178 54.688,16.512 55.550,16.670 55.917 C 16.828 56.283,17.312 57.521,17.745 58.667 C 18.178 59.813,18.629 60.975,18.748 61.250 C 18.867 61.525,19.955 64.337,21.167 67.500 C 22.378 70.662,23.512 73.568,23.685 73.957 C 23.858 74.345,23.999 74.720,23.997 74.790 C 23.993 74.991,25.403 77.744,25.542 77.806 C 25.610 77.836,25.667 77.967,25.667 78.097 C 25.667 78.227,25.725 78.333,25.797 78.333 C 25.869 78.333,26.050 78.540,26.200 78.794 C 26.872 79.932,28.632 81.469,30.000 82.113 C 31.567 82.850,31.891 82.917,33.917 82.916 C 38.801 82.916,41.767 80.335,44.257 73.917 C 44.684 72.817,45.130 71.692,45.249 71.417 C 45.367 71.142,46.455 68.329,47.667 65.167 C 48.878 62.004,49.967 59.192,50.085 58.917 C 50.204 58.642,50.656 57.479,51.089 56.333 C 51.522 55.188,52.005 53.950,52.163 53.583 C 52.321 53.217,52.655 52.354,52.905 51.667 C 53.402 50.303,53.501 50.050,53.900 49.141 C 54.047 48.807,54.167 48.465,54.167 48.381 C 54.167 48.298,54.310 47.933,54.485 47.570 C 54.660 47.207,54.967 46.425,55.166 45.830 C 55.506 44.816,55.620 44.527,56.250 43.100 C 56.387 42.788,56.500 42.450,56.500 42.348 C 56.500 42.246,56.566 42.032,56.647 41.873 C 56.874 41.428,57.099 40.863,57.594 39.500 C 57.844 38.813,58.102 38.175,58.168 38.083 C 58.235 37.992,58.443 37.465,58.631 36.913 C 58.935 36.022,59.768 33.830,60.149 32.917 C 60.226 32.733,60.367 32.396,60.462 32.167 C 60.558 31.938,61.552 29.350,62.672 26.417 C 63.793 23.483,64.837 20.783,64.994 20.417 C 65.151 20.050,65.675 18.700,66.158 17.417 C 66.642 16.133,67.096 14.933,67.168 14.750 C 68.206 12.116,68.262 9.950,67.368 7.079 C 67.195 6.522,66.515 5.131,66.352 5.000 C 66.295 4.954,66.027 4.617,65.757 4.250 C 65.149 3.426,64.497 2.827,63.417 2.100 C 61.745 0.975,61.325 0.792,59.167 0.244 C 56.752 -0.368,52.432 0.290,51.196 1.458 C 51.075 1.573,50.904 1.667,50.817 1.667 C 50.478 1.667,48.481 3.897,47.918 4.903 C 47.349 5.920,46.000 9.064,46.000 9.372 C 46.000 9.454,45.824 9.910,45.609 10.386 C 45.394 10.861,45.086 11.625,44.925 12.083 C 44.580 13.061,44.351 13.639,44.147 14.039 C 44.066 14.199,44.000 14.412,44.000 14.514 C 44.000 14.616,43.887 14.955,43.750 15.266 C 43.612 15.578,43.382 16.100,43.238 16.425 C 43.094 16.750,42.824 17.482,42.638 18.050 C 42.452 18.618,42.157 19.379,41.983 19.740 C 41.809 20.101,41.667 20.464,41.667 20.548 C 41.667 20.631,41.547 20.973,41.400 21.308 C 40.985 22.254,40.883 22.512,40.499 23.583 C 40.302 24.133,40.027 24.846,39.887 25.167 C 39.557 25.923,39.765 25.388,36.743 33.250 C 35.298 37.008,34.071 40.136,34.016 40.201 C 33.930 40.301,30.368 31.371,29.714 29.417 C 29.591 29.050,29.426 28.600,29.346 28.417 C 29.266 28.233,29.086 27.821,28.946 27.500 C 28.806 27.179,28.531 26.467,28.334 25.917 C 27.951 24.845,27.849 24.587,27.434 23.641 C 27.287 23.307,27.167 22.965,27.167 22.881 C 27.167 22.798,27.024 22.434,26.850 22.073 C 26.676 21.712,26.382 20.952,26.195 20.383 C 26.009 19.815,25.730 19.065,25.575 18.717 C 24.921 17.245,24.833 17.024,24.833 16.848 C 24.833 16.746,24.762 16.532,24.676 16.373 C 24.589 16.214,24.282 15.446,23.993 14.667 C 23.704 13.887,23.287 12.854,23.067 12.370 C 22.847 11.886,22.667 11.419,22.667 11.332 C 22.667 11.202,21.752 8.786,21.185 7.417 C 20.767 6.408,19.781 4.438,19.535 4.119 C 18.834 3.212,17.017 1.548,16.333 1.189 C 14.269 0.105,11.043 -0.298,8.750 0.243 M110.583 0.339 C 108.740 0.485,106.474 0.781,105.583 0.993 C 104.828 1.172,103.155 1.587,101.917 1.904 C 101.458 2.020,100.602 2.315,100.013 2.558 C 99.424 2.801,98.867 3.000,98.774 3.000 C 98.485 3.000,94.478 5.007,93.167 5.808 C 89.289 8.179,85.228 11.736,82.577 15.083 C 82.214 15.541,81.821 16.018,81.703 16.142 C 80.339 17.583,77.366 23.052,76.252 26.167 C 75.423 28.488,75.350 28.754,74.505 32.583 C 74.049 34.648,73.917 36.527,73.917 40.917 C 73.917 45.962,74.001 46.789,74.950 51.083 C 75.511 53.616,77.373 58.649,78.198 59.859 C 78.364 60.102,78.500 60.354,78.500 60.417 C 78.500 61.469,83.316 67.740,86.239 70.494 C 86.875 71.093,87.581 71.761,87.808 71.978 C 88.813 72.938,92.732 75.755,93.917 76.369 C 96.263 77.583,97.771 78.331,97.877 78.332 C 97.947 78.333,98.322 78.479,98.710 78.658 C 100.677 79.561,103.730 80.403,107.250 81.013 C 112.089 81.851,117.847 81.732,123.667 80.673 C 124.263 80.565,124.938 80.415,125.167 80.341 C 125.396 80.266,125.921 80.111,126.333 79.995 C 134.413 77.733,142.066 72.479,147.086 65.750 C 147.360 65.384,147.715 64.938,147.875 64.760 C 148.035 64.583,148.167 64.382,148.167 64.314 C 148.167 64.246,148.263 64.091,148.380 63.970 C 148.700 63.641,149.228 62.852,149.755 61.917 C 150.831 60.007,151.667 58.434,151.667 58.318 C 151.667 58.250,151.846 57.832,152.065 57.389 C 152.927 55.647,154.178 51.413,154.643 48.667 C 154.743 48.071,154.902 47.133,154.995 46.583 C 155.444 43.924,155.356 37.199,154.830 33.917 C 154.181 29.867,152.708 25.093,151.333 22.583 C 151.183 22.308,150.843 21.671,150.578 21.167 C 147.757 15.797,141.835 9.439,136.917 6.499 C 136.550 6.280,136.212 6.059,136.167 6.009 C 136.032 5.860,134.237 4.853,133.167 4.327 C 130.250 2.891,127.562 1.969,123.500 1.011 C 120.639 0.336,114.599 0.022,110.583 0.339 M172.750 0.266 C 168.852 0.836,165.470 3.505,164.502 6.774 C 163.825 9.061,163.833 8.775,163.837 29.333 C 163.840 49.580,163.853 50.072,164.492 54.000 C 164.937 56.745,166.382 60.937,167.705 63.321 C 167.988 63.832,168.301 64.400,168.401 64.583 C 168.501 64.767,168.621 64.954,168.667 65.000 C 168.713 65.046,168.847 65.271,168.965 65.500 C 169.083 65.729,169.720 66.636,170.381 67.514 C 174.200 72.590,179.159 76.479,184.668 78.721 C 185.080 78.889,185.567 79.089,185.750 79.167 C 185.933 79.244,186.533 79.434,187.083 79.588 C 187.633 79.742,188.271 79.928,188.500 80.001 C 193.250 81.525,202.080 81.610,207.042 80.180 C 207.385 80.081,207.910 79.935,208.208 79.855 C 208.506 79.775,209.216 79.550,209.786 79.355 C 210.356 79.160,210.874 79.000,210.937 79.000 C 211.132 79.000,210.842 83.868,210.595 84.750 C 209.747 87.774,207.622 90.856,205.537 92.088 C 205.242 92.263,205.000 92.449,205.000 92.503 C 205.000 92.587,202.889 93.624,201.917 94.017 C 201.402 94.225,199.295 94.467,197.039 94.577 C 195.914 94.632,194.827 94.740,194.622 94.817 C 194.417 94.895,193.838 95.094,193.334 95.260 C 189.156 96.640,186.750 100.321,186.750 105.333 C 186.750 111.206,189.542 114.816,195.000 116.001 C 197.151 116.468,204.555 115.959,207.167 115.165 C 207.396 115.096,207.921 114.947,208.333 114.835 C 209.274 114.581,210.456 114.195,211.000 113.965 C 211.229 113.868,211.567 113.732,211.750 113.662 C 213.503 112.998,218.084 110.354,219.027 109.461 C 219.150 109.345,219.550 109.032,219.917 108.765 C 225.451 104.741,230.628 96.331,231.931 89.250 C 232.672 85.219,232.660 85.935,232.663 46.750 C 232.667 7.762,232.689 9.108,231.998 6.774 C 230.501 1.717,224.223 -1.023,218.075 0.698 C 215.727 1.355,213.161 3.503,212.121 5.679 C 211.001 8.025,211.094 6.124,210.991 28.667 C 210.907 46.860,210.868 49.174,210.627 49.917 C 210.479 50.375,210.271 51.039,210.166 51.392 C 209.900 52.285,208.910 54.007,208.120 54.951 C 206.424 56.978,204.114 58.512,201.750 59.181 C 200.611 59.503,195.653 59.509,194.833 59.189 C 193.084 58.506,191.641 57.824,191.362 57.549 C 191.240 57.429,190.990 57.251,190.806 57.152 C 189.256 56.323,186.873 53.060,186.191 50.833 C 186.093 50.512,185.917 49.987,185.801 49.667 C 185.636 49.213,185.567 44.525,185.491 28.500 C 185.388 7.052,185.403 7.441,184.623 5.551 C 183.033 1.695,178.073 -0.513,172.750 0.266 M250.083 0.266 C 246.920 0.727,243.670 2.848,242.563 5.173 C 242.368 5.582,242.086 6.173,241.936 6.487 C 241.268 7.884,241.250 8.494,241.250 29.333 C 241.250 49.278,241.317 52.115,241.833 54.167 C 241.914 54.487,242.068 55.125,242.176 55.583 C 242.573 57.274,243.454 59.992,243.686 60.242 C 243.767 60.329,243.834 60.516,243.835 60.658 C 243.836 60.965,245.202 63.699,246.004 65.000 C 247.070 66.731,247.813 67.741,249.417 69.640 C 249.979 70.305,252.423 72.716,253.162 73.333 C 253.546 73.654,254.023 74.055,254.222 74.225 C 255.534 75.344,259.050 77.440,261.167 78.365 C 261.487 78.505,261.938 78.703,262.167 78.804 C 262.663 79.024,264.545 79.656,265.250 79.840 C 265.525 79.912,266.162 80.081,266.667 80.216 C 269.608 81.003,274.942 81.461,277.935 81.184 C 281.922 80.814,283.163 80.579,286.305 79.593 C 287.344 79.267,288.225 79.000,288.263 79.000 C 288.625 79.000,288.128 84.471,287.650 85.750 C 286.324 89.298,283.481 92.289,280.167 93.624 C 279.938 93.716,279.538 93.877,279.280 93.981 C 278.786 94.180,277.044 94.392,273.833 94.645 C 270.698 94.892,268.999 95.641,267.000 97.656 C 261.245 103.458,263.933 114.068,271.612 115.860 C 274.136 116.449,280.740 116.111,284.167 115.218 C 285.037 114.991,285.998 114.743,286.302 114.668 C 286.778 114.549,287.931 114.134,289.083 113.665 C 290.092 113.255,292.198 112.198,292.962 111.718 C 293.445 111.415,293.876 111.167,293.919 111.167 C 294.024 111.167,296.213 109.608,297.167 108.855 C 298.188 108.048,301.785 104.443,302.594 103.417 C 302.955 102.958,303.295 102.546,303.350 102.500 C 303.405 102.454,303.660 102.079,303.917 101.667 C 304.173 101.254,304.431 100.879,304.489 100.833 C 304.791 100.595,306.734 97.071,307.154 96.000 C 307.280 95.679,307.478 95.192,307.595 94.917 C 308.176 93.542,308.960 90.751,309.491 88.170 C 310.121 85.103,310.241 9.684,309.618 7.599 C 308.299 3.182,304.844 0.521,300.066 0.242 C 297.259 0.078,295.382 0.475,293.102 1.714 C 291.462 2.606,289.460 5.112,288.916 6.954 C 288.760 7.483,288.565 8.134,288.483 8.400 C 288.398 8.673,288.333 17.286,288.333 28.213 C 288.333 49.865,288.350 49.510,287.194 52.083 C 286.865 52.817,286.550 53.454,286.495 53.500 C 286.440 53.546,286.152 53.940,285.856 54.375 C 284.465 56.420,282.405 57.946,279.583 59.023 C 278.372 59.485,273.475 59.601,272.250 59.197 C 267.686 57.691,264.543 54.517,263.294 50.152 C 262.945 48.933,262.939 48.648,262.837 28.333 C 262.721 5.368,262.823 7.300,261.586 4.771 C 260.006 1.540,254.944 -0.442,250.083 0.266 M355.333 0.326 C 353.360 0.488,351.175 0.781,350.083 1.029 C 347.867 1.533,344.911 2.414,343.667 2.942 C 343.346 3.078,342.933 3.249,342.750 3.322 C 333.691 6.941,325.044 15.790,321.322 25.250 C 320.108 28.337,319.584 30.341,318.992 34.167 C 318.536 37.110,318.489 41.082,318.535 72.750 L 318.583 105.417 318.971 106.500 C 320.672 111.245,324.315 113.833,329.293 113.833 C 334.357 113.833,337.836 111.361,339.849 106.333 C 340.045 105.843,340.097 100.385,340.178 72.000 C 340.248 47.430,340.326 38.023,340.466 37.417 C 340.659 36.577,340.817 35.976,341.163 34.750 C 341.267 34.383,341.610 33.536,341.926 32.866 C 342.242 32.197,342.500 31.578,342.500 31.491 C 342.500 31.404,342.575 31.333,342.667 31.333 C 342.758 31.333,342.833 31.221,342.833 31.083 C 342.833 30.946,342.903 30.833,342.989 30.833 C 343.074 30.833,343.191 30.684,343.249 30.502 C 343.956 28.274,349.585 23.899,353.167 22.794 C 355.880 21.956,356.150 21.917,359.167 21.918 C 361.942 21.919,362.765 22.015,364.500 22.542 C 374.431 25.556,380.341 35.752,377.785 45.465 C 377.357 47.090,376.240 49.853,375.962 49.972 C 375.891 50.003,375.833 50.106,375.833 50.201 C 375.833 51.474,370.330 56.697,367.667 57.952 C 364.764 59.320,363.624 59.594,359.833 59.837 C 355.260 60.129,353.216 60.899,351.155 63.106 C 347.310 67.223,347.555 75.030,351.648 78.802 C 352.442 79.534,354.179 80.667,354.507 80.667 C 354.650 80.667,354.838 80.726,354.925 80.799 C 356.623 82.222,365.579 81.664,372.000 79.734 C 373.470 79.293,373.590 79.249,374.833 78.705 C 375.246 78.525,375.767 78.320,375.992 78.250 C 377.070 77.915,382.738 74.702,383.167 74.183 C 383.212 74.128,383.697 73.745,384.243 73.333 C 387.513 70.865,393.224 64.657,393.750 62.999 C 393.808 62.816,393.926 62.667,394.011 62.667 C 394.097 62.667,394.167 62.560,394.167 62.431 C 394.167 62.301,394.223 62.169,394.292 62.139 C 395.296 61.693,398.248 54.126,399.246 49.439 C 400.119 45.344,400.164 36.089,399.330 32.434 C 398.565 29.088,398.206 27.834,397.417 25.757 C 396.115 22.329,393.537 17.752,391.860 15.890 C 391.708 15.721,391.361 15.283,391.089 14.917 C 389.898 13.309,386.026 9.666,383.603 7.872 C 382.950 7.389,382.321 6.916,382.204 6.820 C 381.220 6.013,376.784 3.713,374.500 2.826 C 369.267 0.794,361.686 -0.195,355.333 0.326 M118.417 22.174 C 121.279 22.987,124.436 24.284,124.833 24.810 C 124.879 24.870,125.217 25.116,125.583 25.356 C 126.204 25.762,128.168 27.477,128.571 27.966 C 128.670 28.085,128.918 28.362,129.123 28.581 C 130.768 30.342,131.970 32.674,133.176 36.443 C 133.675 38.004,133.634 43.341,133.108 45.337 C 132.010 49.505,129.269 53.640,126.083 55.935 C 125.717 56.199,125.379 56.464,125.333 56.524 C 125.217 56.678,122.684 58.166,122.537 58.168 C 122.471 58.168,122.229 58.266,122.000 58.385 C 118.386 60.263,111.374 60.322,107.239 58.509 C 105.826 57.889,105.612 57.776,104.492 57.053 C 101.444 55.083,98.719 52.015,97.267 48.917 C 94.905 43.876,94.995 36.856,97.482 32.167 C 97.789 31.588,98.089 31.078,98.168 31.000 C 98.215 30.954,98.464 30.591,98.723 30.192 C 99.729 28.641,102.167 26.164,103.624 25.211 C 104.151 24.867,104.621 24.547,104.667 24.500 C 105.428 23.735,109.662 22.267,112.083 21.929 C 113.010 21.800,117.744 21.983,118.417 22.174 " stroke="none" fill="#1ccc3c" fill-rule="evenodd"></path><path id="path1" d="" stroke="none" fill="#20cc3c" fill-rule="evenodd"></path><path id="path2" d="" stroke="none" fill="#20cc3c" fill-rule="evenodd"></path><path id="path3" d="" stroke="none" fill="#20cc3c" fill-rule="evenodd"></path><path id="path4" d="" stroke="none" fill="#20cc3c" fill-rule="evenodd"></path></g></svg>